<?xml version="1.0" standalone="no"?>
<!DOCTYPE svg PUBLIC "-//W3C//DTD SVG 20010904//EN"
 "http://www.w3.org/TR/2001/REC-SVG-20010904/DTD/svg10.dtd">
<svg version="1.0" xmlns="http://www.w3.org/2000/svg"
 width="500.000000pt" height="340.000000pt" viewBox="0 0 258.000000 175.000000"
 preserveAspectRatio="xMidYMid meet">
<metadata>
Created by potrace 1.10, written by Peter Selinger 2001-2011
</metadata>
<g transform="translate(0.000000,175.000000) scale(0.100000,-0.100000)"
fill="#ffffff" stroke="none">
<path d="M1041 1640 c-51 -55 -108 -107 -125 -114 -20 -8 -73 -60 -133 -129
l-101 -115 -21 21 -21 22 -193 -194 c-105 -107 -181 -185 -167 -175 14 10 96
76 182 147 l157 127 102 -45 103 -45 -38 39 -39 40 79 100 c64 80 85 100 108
103 26 3 41 20 110 125 45 67 83 122 86 122 7 1 70 -105 70 -118 0 -7 -9 -29
-20 -51 l-20 -39 48 -3 47 -3 -50 -32 -50 -32 87 -3 87 -3 -40 -62 c-36 -58
-42 -63 -75 -63 -28 0 -51 -13 -117 -66 -45 -37 -84 -69 -87 -71 -3 -3 13 2
35 11 22 9 97 38 167 64 l127 47 121 114 c66 62 122 112 124 110 18 -25 106
-171 106 -176 0 -4 -10 -17 -22 -30 -26 -27 -18 -28 67 -8 33 8 68 15 78 15
17 0 17 -2 -3 -30 l-21 -30 77 -85 c43 -47 79 -85 80 -85 1 0 -7 30 -17 67
-11 37 -19 71 -19 75 0 7 65 -33 292 -182 l116 -76 -260 267 c-256 263 -261
267 -291 258 -28 -8 -37 -3 -106 50 l-76 58 -35 -22 c-19 -12 -49 -30 -66 -40
l-32 -18 -156 131 c-85 73 -157 132 -159 132 -2 0 -45 -45 -96 -100z m260 -83
c53 -53 121 -103 152 -113 l29 -10 -65 -61 c-36 -34 -63 -64 -59 -68 3 -3 -1
-3 -10 0 -16 7 -17 16 -3 48 11 26 -10 65 -40 73 -14 3 -25 12 -25 19 0 7 -13
24 -28 37 -22 18 -27 29 -21 43 4 11 5 35 2 54 -5 30 -4 32 14 23 11 -6 35
-26 54 -45z m407 -137 c2 -5 20 -10 41 -10 33 0 46 -8 107 -69 102 -101 197
-210 137 -158 -12 10 -27 19 -35 21 -7 1 -18 5 -24 9 -7 4 -23 -2 -36 -13 -32
-24 -48 -10 -48 41 0 46 -20 63 -73 64 -39 0 -44 4 -79 55 -20 30 -37 60 -37
67 -1 14 42 8 47 -7z"/>
<path d="M740 771 c-40 -11 -50 -45 -50 -172 0 -103 2 -119 21 -143 29 -37 89
-37 118 0 18 23 21 41 21 140 0 133 -7 158 -51 173 -17 6 -32 11 -33 10 -1 -1
-12 -4 -26 -8z m58 -167 c2 -102 0 -123 -13 -128 -39 -15 -45 1 -45 123 0 65
3 121 7 125 4 4 16 6 28 4 19 -3 20 -11 23 -124z"/>
<path d="M2199 769 c-28 -11 -49 -46 -49 -84 0 -20 5 -25 24 -25 21 0 25 6 28
33 2 27 7 32 28 32 21 0 25 -5 28 -35 3 -35 -5 -50 -72 -134 -18 -23 -30 -52
-34 -81 l-5 -45 77 0 c74 0 76 1 76 25 0 23 -3 25 -50 25 -33 0 -50 4 -50 13
0 6 20 37 45 67 25 30 50 70 56 88 12 37 5 95 -14 110 -20 15 -60 21 -88 11z"/>
<path d="M15 600 c0 -170 0 -170 23 -170 22 0 22 0 22 170 0 170 0 170 -22
170 -23 0 -23 0 -23 -170z"/>
<path d="M180 600 c0 -162 1 -170 20 -170 18 0 20 8 22 128 l3 127 34 -127
c31 -118 36 -128 57 -128 l24 0 0 170 c0 163 -1 170 -20 170 -19 0 -20 -7 -21
-102 l-1 -103 -15 50 c-8 28 -21 74 -30 103 -13 48 -17 52 -44 52 l-29 0 0
-170z"/>
<path d="M455 600 c0 -169 0 -170 22 -170 21 0 22 5 25 73 l3 72 33 -1 c28 -2
32 1 32 22 0 21 -5 24 -35 24 l-35 0 0 55 0 55 45 0 c38 0 45 3 45 20 0 18 -7
20 -67 20 l-68 0 0 -170z"/>
<path d="M940 750 c0 -16 7 -20 30 -20 l30 0 0 -150 0 -150 25 0 25 0 0 150 0
150 25 0 c18 0 25 5 25 20 0 18 -7 20 -80 20 -73 0 -80 -2 -80 -20z"/>
<path d="M1200 600 l0 -170 25 0 c24 0 25 2 25 71 l0 70 28 -3 c26 -3 27 -5
30 -70 3 -65 4 -68 27 -68 24 0 25 3 25 63 0 40 -5 70 -16 85 -14 20 -14 24 0
44 23 33 21 103 -4 128 -16 16 -33 20 -80 20 l-60 0 0 -170z m105 75 c0 -47
-2 -50 -27 -53 -28 -3 -28 -3 -28 53 0 56 0 56 28 53 25 -3 27 -6 27 -53z"/>
<path d="M1470 600 l0 -170 70 0 c68 0 70 1 70 25 0 23 -4 25 -45 25 l-45 0 0
50 0 50 35 0 c31 0 35 3 35 25 0 22 -4 25 -35 25 l-35 0 0 50 0 50 45 0 c38 0
45 3 45 20 0 18 -7 20 -70 20 l-70 0 0 -170z"/>
<path d="M1720 600 l0 -170 25 0 c24 0 25 3 25 58 0 76 13 97 33 51 7 -19 19
-51 26 -71 10 -30 18 -38 37 -38 13 0 24 2 24 5 0 3 -16 46 -37 96 l-36 92 36
73 c37 74 37 74 13 74 -19 0 -29 -13 -59 -77 l-36 -78 -1 78 c0 75 -1 77 -25
77 l-25 0 0 -170z"/>
<path d="M1990 744 c0 -16 4 -23 11 -18 8 4 9 -3 4 -25 -9 -41 10 -41 24 0 18
52 14 69 -14 69 -20 0 -25 -5 -25 -26z"/>
<path d="M2485 738 c-7 -18 -30 -71 -49 -116 -20 -46 -36 -94 -36 -106 0 -20
5 -22 53 -21 52 0 52 0 55 -32 3 -27 8 -33 26 -33 19 0 22 4 18 30 -3 21 0 32
12 36 21 8 21 44 0 44 -13 0 -15 16 -12 115 l3 115 -28 0 c-22 0 -31 -7 -42
-32z m25 -133 l0 -65 -31 0 c-27 0 -30 3 -23 23 12 39 43 107 49 107 3 0 5
-29 5 -65z"/>
<path d="M1085 198 c-24 -112 -30 -178 -15 -178 6 0 10 9 10 20 0 15 7 20 25
20 18 0 25 -5 25 -20 0 -12 7 -20 16 -20 12 0 14 7 10 27 -7 34 -26 155 -26
166 0 4 -9 7 -20 7 -12 0 -21 -8 -25 -22z m34 -85 c1 -24 -3 -33 -15 -33 -14
0 -15 7 -10 38 3 20 6 44 7 52 1 27 18 -23 18 -57z"/>
<path d="M1242 208 c-7 -7 -12 -44 -12 -94 0 -74 2 -83 20 -89 26 -8 60 3 60
20 0 7 3 20 6 29 4 10 1 16 -9 16 -9 0 -17 -10 -19 -22 -2 -13 -10 -23 -18
-23 -20 0 -28 134 -8 146 17 11 28 2 28 -22 0 -12 5 -19 13 -16 15 5 11 48 -6
59 -18 11 -41 10 -55 -4z"/>
<path d="M1390 120 c0 -60 4 -100 10 -100 6 0 10 31 11 73 0 79 11 70 24 -20
10 -76 30 -69 42 14 l10 68 2 -67 c1 -53 4 -68 16 -68 12 0 15 18 15 100 0 93
-1 100 -20 100 -14 0 -21 -9 -25 -37 -3 -21 -10 -54 -14 -73 -7 -33 -8 -31
-20 38 -11 60 -16 72 -32 72 -17 0 -19 -8 -19 -100z"/>
</g>
</svg>
